<svg width="319" height="51" viewBox="0 0 319 51" fill="none" xmlns="http://www.w3.org/2000/svg">
<path d="M293.766 31.4709C294.236 31.4709 294.625 31.332 294.935 31.0543C295.245 30.7766 295.41 30.4348 295.432 30.0289H297.21C297.189 30.5523 297.029 31.0436 296.73 31.5029C296.42 31.9515 296.003 32.3093 295.48 32.5763C294.956 32.8434 294.39 32.9769 293.782 32.9769C292.607 32.9769 291.672 32.5977 290.978 31.8394C290.294 31.0703 289.952 30.0129 289.952 28.6671V28.4748C289.952 27.1931 290.294 26.1677 290.978 25.3987C291.661 24.6296 292.596 24.2451 293.782 24.2451C294.775 24.2451 295.587 24.5388 296.217 25.1263C296.847 25.7031 297.178 26.4668 297.21 27.4174H295.432C295.41 26.9367 295.245 26.5416 294.935 26.2318C294.625 25.922 294.236 25.7672 293.766 25.7672C293.146 25.7672 292.671 25.9861 292.34 26.4241C292.009 26.8727 291.843 27.5456 291.843 28.4428V28.7472C291.843 29.6658 292.003 30.3493 292.324 30.798C292.655 31.2466 293.135 31.4709 293.766 31.4709V31.4709Z" fill="#1A1A1A"/>
<path fill-rule="evenodd" clip-rule="evenodd" d="M297.963 28.5389C297.963 27.7058 298.129 26.9635 298.46 26.3119C298.791 25.6497 299.25 25.137 299.838 24.7738C300.425 24.4214 301.104 24.2451 301.873 24.2451C303.005 24.2451 303.929 24.6136 304.644 25.3506C305.349 26.0769 305.729 27.0436 305.782 28.2505L305.798 28.6991C305.798 29.5322 305.638 30.2746 305.317 30.9261C304.997 31.5777 304.543 32.0797 303.955 32.4322C303.357 32.7953 302.668 32.9769 301.889 32.9769C300.703 32.9769 299.752 32.5817 299.037 31.7913C298.321 31.0009 297.963 29.9435 297.963 28.619V28.5389ZM299.854 28.7151C299.854 29.5803 300.035 30.2586 300.399 30.7499C300.751 31.2412 301.248 31.4869 301.889 31.4869C302.53 31.4869 303.026 31.2359 303.379 30.7339C303.731 30.2319 303.907 29.5002 303.907 28.5389C303.907 27.6951 303.726 27.0222 303.363 26.5202C302.999 26.0289 302.503 25.7832 301.873 25.7832C301.253 25.7832 300.762 26.0235 300.399 26.5042C300.035 26.9955 299.854 27.7325 299.854 28.7151V28.7151Z" fill="#1A1A1A"/>
<path d="M308.858 24.4053L308.906 25.2865C309.494 24.5923 310.305 24.2451 311.342 24.2451C312.463 24.2451 313.232 24.6777 313.649 25.5429C314.258 24.6777 315.117 24.2451 316.228 24.2451C317.157 24.2451 317.852 24.5015 318.311 25.0142C318.76 25.5268 318.989 26.2852 319 27.2892V32.8167H317.109V27.3373C317.109 26.8032 316.992 26.4134 316.757 26.1677C316.522 25.922 316.137 25.7992 315.603 25.7992C315.165 25.7992 314.813 25.9114 314.546 26.1357C314.268 26.3707 314.076 26.6751 313.969 27.0489L313.985 32.8167H312.095V27.2732C312.063 26.2905 311.555 25.7992 310.573 25.7992C309.814 25.7992 309.28 26.109 308.97 26.7285V32.8167H307.08V24.4053H308.858Z" fill="#1A1A1A"/>
<path fill-rule="evenodd" clip-rule="evenodd" d="M0.490601 33.0576H32.3255V1.22266H0.490601V33.0576ZM11.4656 16.9388H8.26125H8.00491V13.4781H8.02093V11.6676C8.02093 11.203 8.03695 11.0909 8.10104 10.9787C8.1491 10.8826 8.22921 10.7704 8.3734 10.7224C8.88609 10.5461 9.54298 10.4981 10.1999 10.4981H10.1999C11.2573 10.4981 12.3307 10.4981 13.26 10.6423C14.75 10.8505 15.7273 11.0428 15.9837 12.5969C16.0316 12.9204 16.0795 13.2888 16.1342 13.7086C16.1526 13.8501 16.1717 13.9975 16.1919 14.151H16.5124C16.6566 13.1577 16.9289 11.908 17.746 11.2671C18.451 10.7064 19.8128 10.4981 20.8062 10.4981C21.0839 10.4981 21.2441 10.5088 21.2868 10.5301C21.3829 10.5622 21.415 10.5942 21.415 11.0108V23.764C21.415 24.2126 21.3883 24.4849 21.3349 24.5811C21.2815 24.6879 21.164 24.7787 20.9824 24.8534C20.4697 25.0457 19.5084 25.0938 18.9477 25.0938V25.3661H26.2855V25.0938C25.7248 25.0938 24.7635 25.0457 24.2348 24.8534C24.0532 24.7787 23.9517 24.7092 23.9304 24.6451C23.8663 24.517 23.8342 24.2232 23.8342 23.764V10.9947C23.8342 10.6302 23.8813 10.5949 23.9444 10.5477L23.9464 10.5461C23.9678 10.5141 24.1333 10.4981 24.4431 10.4981C25.5646 10.4981 27.0225 10.6903 27.7756 11.2831C28.6817 11.9667 28.8149 12.8553 29.0047 14.1211L29.0092 14.151V14.2311H29.3297V14.151V9.90527H3.48682V10.1456C3.99951 10.1456 4.75252 10.2417 5.21715 10.418C5.38805 10.4821 5.48952 10.5461 5.52156 10.6102C5.57496 10.7277 5.60167 11.0161 5.60167 11.4754V23.764C5.60167 24.2126 5.57496 24.4849 5.52156 24.5811C5.25634 25.1115 4.12388 25.0999 3.60716 25.0946C3.56201 25.0942 3.52157 25.0938 3.48682 25.0938V25.3661H16.6566V21.4088H16.3842C16.24 22.8828 15.4069 23.5877 14.2694 24.1485C13.9169 24.3247 13.5324 24.4529 13.1478 24.549C11.9142 24.8534 10.6324 24.7893 9.38276 24.7253C9.1104 24.7092 8.24523 24.565 8.11706 24.2927C8.11095 24.2784 8.10485 24.2652 8.09884 24.2522C8.05756 24.1629 8.02093 24.0836 8.02093 23.7479V21.1044H8.00491V17.6918H9.4789H10.6004H11.4656C12.3948 17.6918 13.1478 18.3326 13.1478 19.2459V19.9829C13.1585 20.079 13.1639 20.1805 13.1639 20.2873H13.6765V14.2952H13.1639C13.1532 14.3166 13.1478 14.3379 13.1478 14.3593V15.3366C13.1478 16.2659 12.3948 16.9388 11.4656 16.9388Z" fill="#ED1C24"/>
<path d="M38.3661 1.31836H67.0608V15.4334H65.8752L65.8431 15.177C65.1222 10.0822 63.9686 6.52538 62.4305 4.63483C61.1969 3.09676 59.3223 2.3117 56.9031 2.3117C56.2141 2.3117 56.0379 2.34374 56.0059 2.35977C56.0219 2.35977 55.9418 2.55202 55.9418 3.36912V29.0998C55.9418 30.2534 56.0379 30.6219 56.102 30.75C56.102 30.75 56.1821 30.8462 56.6147 31.0064C56.9672 31.1506 57.6881 31.2627 58.7295 31.3589C59.787 31.455 61.2609 31.503 63.0714 31.503H63.3598V32.5284H42.1312V31.503H42.4035C44.1819 31.503 45.6399 31.455 46.6973 31.3589C48.0111 31.2467 48.5718 31.1025 48.8122 31.0064C49.1967 30.8622 49.3409 30.718 49.405 30.6219C49.437 30.5417 49.5331 30.2534 49.5331 29.0998V3.41719C49.5331 2.536 49.421 2.34374 49.405 2.32772C49.405 2.34374 49.2448 2.3117 48.5398 2.3117C46.1686 2.3117 44.3261 3.08074 43.0925 4.58677C41.5544 6.50936 40.3688 10.0501 39.5998 15.0969L39.5517 15.3373H38.3661V1.31836Z" fill="#1A1A1A"/>
<path d="M86.8146 13.9434C87.0549 14.5843 87.1831 15.1611 87.1831 15.6738C87.1831 17.0516 86.6063 18.0129 85.4367 18.5416C85.1483 18.6858 84.7798 18.7499 84.3152 18.7499C83.6103 18.7499 82.9854 18.5096 82.4887 18.0129C81.9921 17.5162 81.7357 16.7793 81.7357 15.818C81.7357 15.1771 81.9761 14.5522 82.4407 13.9274C82.8038 13.4468 83.2257 13.1797 83.7064 13.1263C83.5141 12.918 83.1777 12.7258 82.4727 12.7258C81.6556 12.7258 80.8065 13.3506 79.9573 14.6003C78.8038 16.2666 78.211 18.4455 78.211 21.073V29.965C78.211 30.7501 78.2751 30.9904 78.3231 31.0705C78.3231 31.0705 78.3712 31.1346 78.6115 31.2307C79.2203 31.439 80.5822 31.5512 82.6329 31.5512H82.9053V32.5285H68.4698V31.5512H68.7582C69.6554 31.5512 70.4886 31.5191 71.2256 31.455C71.9145 31.3909 72.5233 31.2788 73.02 31.1026C73.068 31.0225 73.1802 30.7661 73.1802 29.965V15.113C73.1802 14.2959 73.0681 14.1197 73.052 14.0876C72.7957 13.7191 72.6355 13.639 72.5714 13.607C72.0266 13.4628 70.7449 13.3827 68.7582 13.3827H68.4698V12.4214L78.211 11.6523V15.7058C78.4246 15.1824 78.697 14.6751 79.0281 14.1838C80.1176 12.5175 81.5275 11.6844 83.1937 11.6844C83.8506 11.6844 84.5555 11.8927 85.2925 12.3092C86.0455 12.7418 86.5582 13.2865 86.8146 13.9434V13.9434Z" fill="#1A1A1A"/>
<path fill-rule="evenodd" clip-rule="evenodd" d="M108.861 25.8797C108.861 26.5366 108.877 27.1775 108.909 27.7703C108.909 29.6928 108.669 30.9586 108.188 31.6475C107.563 32.5287 106.313 32.9613 104.471 32.9613C103.045 32.9613 101.955 32.7049 101.251 32.2082C100.562 31.7116 100.049 30.9425 99.7445 29.9171C99.0555 31.1348 98.1263 32 96.9407 32.4646C96.1236 32.801 95.0181 32.9613 93.6563 32.9613C92.2784 32.9613 91.0608 32.6248 90.0354 31.9679C88.5934 31.0547 87.8564 29.6608 87.8564 27.8183C87.8564 26.0399 88.5614 24.5179 89.9393 23.2842C91.3171 22.1146 92.9834 21.4257 94.938 21.2655C96.7805 21.1053 98.0302 20.8649 98.655 20.5445C99.2158 20.2401 99.5041 19.5352 99.5041 18.4617V15.69C99.5041 14.2 99.2158 13.5591 98.9754 13.3028C98.7351 13.0304 98.1263 12.726 96.5722 12.726C95.5308 12.726 94.6015 12.9182 93.8325 13.3188C93.2397 13.6232 92.8231 13.9917 92.5508 14.4403H92.5668C93.2557 14.4403 93.8165 14.7127 94.2491 15.2574C94.6816 15.7861 94.8899 16.3789 94.8899 17.0518C94.8899 17.8208 94.6176 18.4617 94.0728 18.9584C93.5441 19.455 92.9193 19.6954 92.2143 19.6954C91.7337 19.6954 91.3011 19.5672 90.9486 19.3269C89.9393 18.67 89.4266 17.8208 89.4266 16.8115C89.4266 16.3308 89.5387 15.8021 89.731 15.1933C90.2116 13.8795 91.3812 12.9022 93.2397 12.3094C94.5214 11.8929 95.8512 11.6846 97.165 11.6846C99.5682 11.6846 101.411 12.1492 102.66 13.0624C103.814 13.9116 104.391 14.985 104.391 16.2828V26.7449C104.391 28.6194 104.439 29.773 104.535 30.2055C104.727 31.1508 105.176 31.5834 105.961 31.5834C106.666 31.5834 107.114 31.2469 107.355 30.5099C107.627 29.6928 107.771 28.4752 107.771 26.9051C107.771 26.4778 107.766 26.0453 107.755 25.6073C107.734 25.1587 107.723 24.6941 107.723 24.2135V23.5085H108.861V25.8797ZM94.938 31.9198C96.0595 31.9198 97.0849 31.4392 97.9981 30.5099C98.8953 29.5647 99.3599 28.3951 99.3599 27.0493V21.3776C98.9861 21.6447 98.5322 21.8209 97.9981 21.9064C97.2504 22.0132 96.5295 22.1146 95.8352 22.2108C95.0021 22.419 94.3452 22.8837 93.8485 23.6207C93.2397 24.5179 92.9353 25.8156 92.9353 27.4819C92.9353 29.2603 93.1115 30.4779 93.448 31.0867C93.7684 31.6475 94.2491 31.9198 94.938 31.9198Z" fill="#1A1A1A"/>
<path d="M121.133 11.6846H129.721V12.726H129.433C128.295 12.726 127.414 12.9983 126.805 13.5271C126.18 14.0878 125.443 15.5298 124.642 17.8208L119.515 32.769H118.217L111.504 14.2961C111.136 13.3668 111.024 13.1105 110.992 13.0304C110.928 12.9503 110.671 12.726 109.582 12.726H108.204V11.6846H119.643V12.726H119.355C118.629 12.726 117.897 12.7313 117.16 12.742C116.856 12.742 116.359 12.7901 116.327 13.0304L116.583 13.9276L120.829 25.4311L123.761 16.8275C124.129 15.7541 124.306 14.9209 124.306 14.3442C124.306 13.9436 124.306 12.726 121.406 12.726H121.133V11.6846Z" fill="#1A1A1A"/>
<path fill-rule="evenodd" clip-rule="evenodd" d="M146.639 24.2775H147.585V24.5499C147.585 27.0012 146.783 29.036 145.213 30.5901C143.659 32.1602 141.544 32.9613 138.933 32.9613C136.754 32.9613 134.735 32.1281 132.957 30.4619C130.842 28.5233 129.769 25.9438 129.769 22.8036C129.769 19.407 130.826 16.6032 132.893 14.4723C134.719 12.6138 136.802 11.6846 139.077 11.6846C141.208 11.6846 142.986 12.3094 144.396 13.5591C146.447 15.3856 147.488 18.3816 147.488 22.4671V22.7395H135.28C135.296 25.9438 135.697 28.299 136.45 29.7409C137.219 31.1829 138.34 31.8718 139.894 31.8718C141.56 31.8718 143.034 31.311 144.316 30.1735C145.854 28.8117 146.639 26.9211 146.639 24.5499V24.2775ZM139.686 12.726C138.068 12.726 136.962 13.4309 136.305 14.8729C135.648 16.3148 135.296 18.5899 135.28 21.618H142.89C142.874 18.7341 142.602 16.491 142.073 14.953C141.576 13.463 140.791 12.726 139.686 12.726Z" fill="#1A1A1A"/>
<path d="M162.645 31.5513H162.933V32.5286H148.498V31.5513H148.77C149.683 31.5513 150.516 31.5192 151.237 31.4551C151.926 31.391 152.535 31.2789 153.032 31.1027C153.08 31.0225 153.192 30.7662 153.192 29.9651V4.50681C153.192 3.80186 153.08 3.48142 152.968 3.33723C152.823 3.14497 152.663 3.00078 152.535 2.96873C152.006 2.80852 150.757 2.74443 148.818 2.74443H148.546V1.76711L158.223 0.917969V29.9651C158.223 30.7502 158.303 31.0065 158.335 31.0706C158.335 31.0706 158.415 31.1347 158.623 31.2308C159.232 31.4391 160.594 31.5513 162.645 31.5513V31.5513Z" fill="#1A1A1A"/>
<path fill-rule="evenodd" clip-rule="evenodd" d="M221.781 14.3281C223.992 16.3308 225.113 19.0064 225.113 22.2748C225.113 25.4151 224.008 28.0586 221.845 30.1254C219.858 32 217.599 32.9613 215.132 32.9613C212.6 32.9613 210.357 32.064 208.483 30.3177C206.272 28.2829 205.166 25.5753 205.166 22.2748C205.166 19.1346 206.256 16.5071 208.435 14.4723C210.405 12.6138 212.664 11.6846 215.132 11.6846C217.631 11.6846 219.874 12.5658 221.781 14.3281V14.3281ZM211.623 29.773C212.216 31.2469 213.369 31.9679 215.132 31.9679C216.734 31.9679 217.855 31.2309 218.528 29.7089C219.249 28.1387 219.602 25.6394 219.602 22.2748C219.602 18.8142 219.313 16.3629 218.721 14.969C218.064 13.4309 216.894 12.6779 215.132 12.6779C213.53 12.6779 212.408 13.3989 211.735 14.8889C211.014 16.427 210.662 18.9103 210.662 22.2748C210.662 25.7035 210.982 28.2349 211.623 29.773Z" fill="#1A1A1A"/>
<path d="M244.916 15.6738C244.916 17.0516 244.339 18.0129 243.169 18.5416C242.897 18.6858 242.513 18.7499 242.048 18.7499C241.343 18.7499 240.718 18.4936 240.222 18.0129C239.725 17.5162 239.469 16.7793 239.469 15.818C239.469 15.1771 239.709 14.5522 240.173 13.9274C240.547 13.4468 240.969 13.1797 241.439 13.1263C241.263 12.918 240.91 12.7258 240.205 12.7258C239.388 12.7258 238.539 13.3506 237.69 14.6003C236.537 16.2666 235.944 18.4455 235.944 21.073V29.965C235.944 30.7501 236.024 31.0064 236.056 31.0705C236.04 31.0705 236.072 31.1186 236.344 31.2307C236.953 31.439 238.315 31.5512 240.366 31.5512H240.654V32.5285H226.203V31.5512H226.491C227.388 31.5512 228.221 31.5191 228.958 31.455C229.647 31.3909 230.256 31.2788 230.753 31.1026C230.801 31.0225 230.913 30.7661 230.913 29.949V15.113C230.913 14.2959 230.801 14.1197 230.785 14.0876C230.528 13.7191 230.368 13.639 230.304 13.607C229.759 13.4628 228.478 13.3827 226.491 13.3827H226.203V12.4214L235.944 11.6523V15.7058C236.157 15.1824 236.43 14.6751 236.761 14.1838C237.85 12.5175 239.26 11.6844 240.943 11.6844C241.583 11.6844 242.288 11.8927 243.025 12.3092C243.778 12.7418 244.291 13.2865 244.547 13.9434C244.804 14.5843 244.916 15.1611 244.916 15.6738V15.6738Z" fill="#1A1A1A"/>
<path d="M258.999 31.5513H259.272V32.5286H244.836V31.5513H245.124C246.022 31.5513 246.855 31.5192 247.592 31.4551C248.281 31.391 248.874 31.2789 249.386 31.1027C249.434 31.0386 249.546 30.7662 249.546 29.9651V4.50681C249.546 3.80186 249.418 3.48142 249.306 3.33723C249.162 3.14497 249.002 3.00078 248.874 2.96873C248.345 2.80852 247.095 2.74443 245.156 2.74443H244.884V1.76711L254.561 0.917969V29.9651C254.561 30.7502 254.641 31.0065 254.673 31.0706C254.689 31.0706 254.753 31.1347 254.962 31.2308C255.587 31.4391 256.948 31.5513 258.999 31.5513V31.5513Z" fill="#1A1A1A"/>
<path fill-rule="evenodd" clip-rule="evenodd" d="M282.839 31.0706V32.0319L273.354 32.9932V28.8276C273.184 29.2869 272.975 29.7301 272.73 30.1574C271.704 32.0159 270.246 32.9612 268.404 32.9612C266.049 32.9612 264.078 32.0479 262.524 30.2535C260.874 28.2989 260.041 25.6073 260.041 22.2267C260.041 19.8875 260.81 17.6285 262.332 15.5136C264.11 12.9662 266.417 11.6845 269.157 11.6845C270.695 11.6845 271.913 12.5336 272.778 14.1999C273.002 14.6164 273.194 15.0544 273.354 15.5136V4.50681C273.354 3.80186 273.226 3.48142 273.114 3.33723C272.97 3.14497 272.762 3.0168 272.489 2.96873C271.704 2.82454 269.942 2.74443 267.218 2.74443H266.93V1.76711L278.369 0.917969V29.5005C278.369 30.2695 278.449 30.5259 278.481 30.606C278.497 30.606 278.561 30.6701 278.77 30.7502C279.379 30.9585 280.66 31.0706 282.567 31.0706H282.839ZM266.049 29.2602C266.529 31.0866 267.459 31.9678 268.916 31.9678C269.878 31.9678 270.775 31.1988 271.56 29.6928C272.585 27.8022 273.098 25.2708 273.098 22.1786C273.098 19.0544 272.746 16.6512 272.025 15.033C271.352 13.4789 270.455 12.7259 269.301 12.7259C267.891 12.7259 266.946 13.3507 266.401 14.6645C265.824 16.0424 265.536 18.6058 265.536 22.2748C265.536 25.6073 265.712 27.9624 266.049 29.2602V29.2602Z" fill="#1A1A1A"/>
<path d="M210.262 1.31836V2.3117H209.973C207.826 2.3117 206.272 3.40117 205.247 5.62817C205.087 5.96462 204.526 7.47065 203.501 10.2584L195.634 32.7207H193.663L186.87 10.3385L181.07 32.7207H179.036L178.972 32.5444L168.525 4.79504C167.965 3.27299 167.5 2.77632 167.212 2.64815C166.891 2.48794 165.978 2.3117 163.318 2.3117H163.03V1.31836H178.475V2.32772C177.145 2.35976 176.152 2.45589 175.575 2.61611C174.758 2.84041 174.662 3.25697 174.662 3.56139C174.662 3.83375 174.758 4.18623 174.934 4.58677L182.08 23.7165L186.181 8.11152L185.188 4.79504C184.739 3.30504 184.275 2.82439 183.954 2.66417C183.634 2.51998 182.737 2.34374 180.429 2.3117V1.31836H195.986V2.3117C194.208 2.32772 192.942 2.42385 192.253 2.61611C191.629 2.77632 191.34 3.11278 191.34 3.65751C191.34 3.96726 191.399 4.28236 191.516 4.60279L197.396 23.7967L202.363 9.79378C202.876 8.27173 203.148 7.02205 203.148 6.07677C203.148 3.59343 201.434 2.37579 197.941 2.32772V1.31836H210.262Z" fill="#1A1A1A"/>
<path d="M286.633 30.3594C286.983 30.3594 287.25 30.4552 287.433 30.6468C287.617 30.8468 287.713 31.0926 287.721 31.3843C287.713 31.6676 287.617 31.9051 287.433 32.0967C287.25 32.2883 286.983 32.3842 286.633 32.3842C286.308 32.3842 286.05 32.2883 285.859 32.0967C285.667 31.9134 285.571 31.6759 285.571 31.3843C285.571 31.0926 285.663 30.8468 285.846 30.6468C286.038 30.4552 286.3 30.3594 286.633 30.3594Z" fill="#1A1A1A"/>
<path d="M77.8107 41.0697L76.7452 40.8976V40.0769H83.9179L84.0478 42.4728H83.0083L82.5275 41.0167L79.7208 40.8711V44.6172L81.6569 44.5775L81.9038 43.4126H82.7354V46.7748H81.9168L81.6569 45.5835L79.7208 45.5305V48.9854L81.7089 49.1178V49.912H76.8102V49.1178L77.8107 48.9854V41.0697Z" fill="#727272"/>
<path d="M84.5555 49.131L85.4131 49.0251V43.8097L84.5815 43.5715V42.6581L86.5955 42.3801H86.6345L86.9593 42.6449V42.9361L86.9203 44.0083H86.9593C87.02 43.8318 87.1629 43.6156 87.3881 43.3597C87.6134 43.0949 87.8949 42.8655 88.2327 42.6713C88.5792 42.4684 88.9517 42.3669 89.3502 42.3669C89.5408 42.3669 89.7054 42.3934 89.844 42.4463V44.4319C89.5841 44.2465 89.2679 44.1539 88.8954 44.1539C88.263 44.1539 87.713 44.326 87.2452 44.6701V49.0119L88.7525 49.131V49.912H84.5555V49.131Z" fill="#727272"/>
<path d="M90.2819 46.2453C90.2819 45.4158 90.4422 44.7098 90.7627 44.1274C91.0919 43.545 91.5293 43.1082 92.0751 42.8169C92.6208 42.5169 93.2142 42.3669 93.8552 42.3669C94.9467 42.3669 95.787 42.711 96.376 43.3994C96.9737 44.0789 97.2726 45.0055 97.2726 46.1792C97.2726 47.0175 97.108 47.7323 96.7788 48.3236C96.4583 48.906 96.0252 49.3428 95.4794 49.634C94.9424 49.9164 94.349 50.0576 93.6993 50.0576C92.6165 50.0576 91.7762 49.7179 91.1785 49.0384C90.5808 48.35 90.2819 47.419 90.2819 46.2453ZM93.8032 49.1972C94.7821 49.1972 95.2715 48.2353 95.2715 46.3115C95.2715 45.3055 95.1546 44.5422 94.9207 44.0215C94.6868 43.492 94.3057 43.2273 93.7772 43.2273C92.7724 43.2273 92.27 44.1892 92.27 46.113C92.27 47.119 92.3912 47.8867 92.6338 48.4162C92.885 48.9369 93.2748 49.1972 93.8032 49.1972Z" fill="#727272"/>
<path d="M98.064 49.1178L98.7917 48.9987V43.8097L97.9601 43.5715V42.6581L100.117 42.3801L100.273 42.486L100.468 42.9228V43.4788C100.754 43.1964 101.161 42.9493 101.689 42.7375C102.226 42.5169 102.69 42.4066 103.08 42.4066C103.547 42.4066 103.924 42.486 104.21 42.6449C104.505 42.8037 104.726 43.0508 104.873 43.3861C105.159 43.1214 105.535 42.892 106.003 42.6978C106.471 42.5037 106.93 42.4066 107.381 42.4066C108.152 42.4066 108.697 42.636 109.018 43.0949C109.338 43.5538 109.499 44.3039 109.499 45.3452V48.9987L110.343 49.1178V49.912H106.978V49.1178L107.653 48.9987V45.3982C107.653 44.7098 107.571 44.2289 107.407 43.9553C107.251 43.6729 106.947 43.5317 106.497 43.5317C106.254 43.5317 106.003 43.5891 105.743 43.7038C105.492 43.8097 105.267 43.9421 105.068 44.1009C105.128 44.4363 105.159 44.8555 105.159 45.3585V48.9987L105.964 49.1178V49.912H102.573V49.1178L103.288 48.9987V45.3585C103.288 44.8996 103.257 44.5422 103.197 44.2863C103.145 44.0215 103.041 43.8318 102.885 43.7171C102.729 43.5935 102.504 43.5317 102.209 43.5317C101.932 43.5317 101.655 43.5979 101.377 43.7303C101.109 43.8538 100.866 44.0039 100.65 44.1804V48.9987L101.416 49.1178V49.912H98.064V49.1178Z" fill="#727272"/>
<path d="M116.606 40.9505L114.748 41.0167L114.241 43.9024H113.15L113.371 40.0769H121.752L121.908 43.9024H120.881L120.374 41.0167L118.542 40.9505V48.9854L120.361 49.1178V49.912H114.943V49.1178L116.606 48.9854V40.9505Z" fill="#727272"/>
<path d="M122.998 40.2357L122.011 40.0636V39.3488L124.427 39.0576H124.466L124.804 39.3091L124.817 42.261L124.726 43.4126C124.995 43.1655 125.359 42.9361 125.818 42.7243C126.286 42.5125 126.775 42.4066 127.286 42.4066C127.832 42.4066 128.256 42.5125 128.559 42.7243C128.863 42.9273 129.075 43.2405 129.196 43.6641C129.317 44.0877 129.378 44.6525 129.378 45.3585V48.9987L130.21 49.1178V49.912H126.792V49.1178L127.546 48.9987V45.3585C127.546 44.8996 127.516 44.5422 127.455 44.2863C127.394 44.0303 127.282 43.8406 127.117 43.7171C126.961 43.5935 126.727 43.5317 126.415 43.5317C126.147 43.5317 125.87 43.5979 125.584 43.7303C125.307 43.8538 125.06 44.0039 124.843 44.1804V48.9987L125.636 49.1178V49.912H122.27V49.1178L122.998 49.0119V40.2357Z" fill="#727272"/>
<path d="M133.977 50.0576C132.833 50.0576 131.98 49.7179 131.417 49.0384C130.863 48.35 130.586 47.4146 130.586 46.2321C130.586 45.4379 130.728 44.7496 131.014 44.1671C131.309 43.5847 131.72 43.139 132.249 42.8302C132.777 42.5213 133.388 42.3669 134.081 42.3669C134.947 42.3669 135.614 42.6007 136.082 43.0684C136.55 43.5273 136.792 44.1848 136.81 45.0408C136.81 45.6232 136.775 46.0556 136.706 46.338H132.483C132.517 47.1411 132.704 47.7676 133.041 48.2177C133.379 48.6589 133.86 48.8795 134.484 48.8795C134.822 48.8795 135.168 48.8222 135.523 48.7074C135.887 48.5927 136.173 48.4559 136.381 48.2971L136.706 49.0251C136.472 49.281 136.091 49.5193 135.562 49.7399C135.042 49.9517 134.514 50.0576 133.977 50.0576ZM134.99 45.5438C135.008 45.2967 135.016 45.107 135.016 44.9746C135.016 43.8009 134.631 43.2141 133.86 43.2141C133.436 43.2141 133.106 43.3861 132.872 43.7303C132.639 44.0745 132.509 44.679 132.483 45.5438H134.99Z" fill="#727272"/>
<path d="M141.099 41.0697L140.059 40.8976V40.0769H146.985L147.154 42.3007H146.245L145.816 40.9902L143.009 40.8711V44.4319L144.815 44.3922L145.023 43.3067H145.855V46.5101H145.023L144.815 45.3717L143.009 45.332V49.0648L146.154 48.906L146.907 47.2116L147.882 47.4896L147.544 49.912H140.072V49.1178L141.099 48.9854V41.0697Z" fill="#727272"/>
<path d="M148.106 46.2718C148.106 45.5129 148.253 44.8378 148.548 44.2465C148.851 43.6553 149.28 43.1964 149.834 42.8699C150.397 42.5346 151.051 42.3669 151.796 42.3669C152.143 42.3669 152.442 42.3934 152.693 42.4463C152.944 42.4993 153.226 42.5699 153.538 42.6581L153.914 42.764L153.837 45.0275H152.706L152.381 43.5715C152.329 43.342 152.074 43.2273 151.615 43.2273C151.129 43.2273 150.748 43.4435 150.471 43.8759C150.203 44.3083 150.064 44.9834 150.055 45.9012C150.055 46.8719 150.22 47.6176 150.549 48.1382C150.878 48.6501 151.316 48.906 151.861 48.906C152.52 48.906 153.126 48.7251 153.681 48.3633L153.979 49.0516C153.754 49.2987 153.408 49.5281 152.94 49.7399C152.481 49.9517 151.983 50.0576 151.446 50.0576C150.337 50.0576 149.501 49.709 148.938 49.0119C148.383 48.3147 148.106 47.4014 148.106 46.2718Z" fill="#727272"/>
<path d="M154.623 46.2453C154.623 45.4158 154.784 44.7098 155.104 44.1274C155.433 43.545 155.871 43.1082 156.417 42.8169C156.962 42.5169 157.556 42.3669 158.197 42.3669C159.288 42.3669 160.128 42.711 160.717 43.3994C161.315 44.0789 161.614 45.0055 161.614 46.1792C161.614 47.0175 161.449 47.7323 161.12 48.3236C160.8 48.906 160.367 49.3428 159.821 49.634C159.284 49.9164 158.69 50.0576 158.041 50.0576C156.958 50.0576 156.118 49.7179 155.52 49.0384C154.922 48.35 154.623 47.419 154.623 46.2453ZM158.145 49.1972C159.124 49.1972 159.613 48.2353 159.613 46.3115C159.613 45.3055 159.496 44.5422 159.262 44.0215C159.028 43.492 158.647 43.2273 158.119 43.2273C157.114 43.2273 156.611 44.1892 156.611 46.113C156.611 47.119 156.733 47.8867 156.975 48.4162C157.226 48.9369 157.616 49.1972 158.145 49.1972Z" fill="#727272"/>
<path d="M163.133 43.8097L162.302 43.5715V42.6581L164.458 42.3801H164.497L164.822 42.6449V43.1611L164.809 43.4788C165.113 43.1876 165.507 42.9361 165.992 42.7243C166.477 42.5125 166.966 42.4066 167.46 42.4066C167.988 42.4066 168.4 42.5081 168.694 42.711C168.998 42.9052 169.214 43.2141 169.344 43.6376C169.474 44.0612 169.539 44.6348 169.539 45.3585V49.0119L170.332 49.1178V49.912H166.979V49.1178L167.681 49.0119V45.3585C167.681 44.8996 167.651 44.5422 167.59 44.2863C167.529 44.0215 167.417 43.8318 167.252 43.7171C167.096 43.5935 166.871 43.5317 166.576 43.5317C166.083 43.5317 165.554 43.748 164.991 44.1804V48.9987L165.771 49.1178V49.912H162.379V49.1178L163.133 48.9987V43.8097Z" fill="#727272"/>
<path d="M170.86 46.2453C170.86 45.4158 171.02 44.7098 171.341 44.1274C171.67 43.545 172.108 43.1082 172.653 42.8169C173.199 42.5169 173.792 42.3669 174.433 42.3669C175.525 42.3669 176.365 42.711 176.954 43.3994C177.552 44.0789 177.851 45.0055 177.851 46.1792C177.851 47.0175 177.686 47.7323 177.357 48.3236C177.037 48.906 176.603 49.3428 176.058 49.634C175.521 49.9164 174.927 50.0576 174.277 50.0576C173.195 50.0576 172.354 49.7179 171.757 49.0384C171.159 48.35 170.86 47.419 170.86 46.2453ZM174.381 49.1972C175.36 49.1972 175.85 48.2353 175.85 46.3115C175.85 45.3055 175.733 44.5422 175.499 44.0215C175.265 43.492 174.884 43.2273 174.355 43.2273C173.351 43.2273 172.848 44.1892 172.848 46.113C172.848 47.119 172.969 47.8867 173.212 48.4162C173.463 48.9369 173.853 49.1972 174.381 49.1972Z" fill="#727272"/>
<path d="M178.642 49.1178L179.37 48.9987V43.8097L178.538 43.5715V42.6581L180.695 42.3801L180.851 42.486L181.046 42.9228V43.4788C181.332 43.1964 181.739 42.9493 182.267 42.7375C182.805 42.5169 183.268 42.4066 183.658 42.4066C184.126 42.4066 184.502 42.486 184.788 42.6449C185.083 42.8037 185.304 43.0508 185.451 43.3861C185.737 43.1214 186.114 42.892 186.581 42.6978C187.049 42.5037 187.508 42.4066 187.959 42.4066C188.73 42.4066 189.276 42.636 189.596 43.0949C189.917 43.5538 190.077 44.3039 190.077 45.3452V48.9987L190.921 49.1178V49.912H187.556V49.1178L188.232 48.9987V45.3982C188.232 44.7098 188.149 44.2289 187.985 43.9553C187.829 43.6729 187.526 43.5317 187.075 43.5317C186.833 43.5317 186.581 43.5891 186.322 43.7038C186.07 43.8097 185.845 43.9421 185.646 44.1009C185.707 44.4363 185.737 44.8555 185.737 45.3585V48.9987L186.542 49.1178V49.912H183.151V49.1178L183.866 48.9987V45.3585C183.866 44.8996 183.835 44.5422 183.775 44.2863C183.723 44.0215 183.619 43.8318 183.463 43.7171C183.307 43.5935 183.082 43.5317 182.787 43.5317C182.51 43.5317 182.233 43.5979 181.956 43.7303C181.687 43.8538 181.445 44.0039 181.228 44.1804V48.9987L181.995 49.1178V49.912H178.642V49.1178Z" fill="#727272"/>
<path d="M192.957 41.3476C192.646 41.3476 192.399 41.255 192.217 41.0697C192.035 40.8843 191.944 40.6461 191.944 40.3548C191.944 40.0195 192.048 39.7415 192.256 39.5209C192.464 39.3003 192.741 39.19 193.087 39.19C193.434 39.19 193.698 39.2871 193.88 39.4812C194.062 39.6665 194.153 39.9004 194.153 40.1828C194.153 40.5358 194.049 40.8181 193.841 41.0299C193.633 41.2417 193.343 41.3476 192.97 41.3476H192.957ZM192.269 43.8097L191.346 43.5582V42.6713L193.724 42.3801H193.75L194.114 42.6449V49.0119L194.985 49.1178V49.912H191.359V49.1178L192.269 48.9987V43.8097Z" fill="#727272"/>
<path d="M195.357 46.2718C195.357 45.5129 195.504 44.8378 195.799 44.2465C196.102 43.6553 196.531 43.1964 197.085 42.8699C197.648 42.5346 198.302 42.3669 199.047 42.3669C199.394 42.3669 199.693 42.3934 199.944 42.4463C200.195 42.4993 200.477 42.5699 200.789 42.6581L201.165 42.764L201.087 45.0275H199.957L199.632 43.5715C199.58 43.342 199.325 43.2273 198.866 43.2273C198.38 43.2273 197.999 43.4435 197.722 43.8759C197.454 44.3083 197.315 44.9834 197.306 45.9012C197.306 46.8719 197.471 47.6176 197.8 48.1382C198.129 48.6501 198.567 48.906 199.112 48.906C199.771 48.906 200.377 48.7251 200.932 48.3633L201.23 49.0516C201.005 49.2987 200.659 49.5281 200.191 49.7399C199.732 49.9517 199.234 50.0576 198.697 50.0576C197.588 50.0576 196.752 49.709 196.189 49.0119C195.634 48.3147 195.357 47.4014 195.357 46.2718Z" fill="#727272"/>
<path d="M207.648 40.9505L205.789 41.0167L205.283 43.9024H204.191L204.412 40.0769H212.793L212.949 43.9024H211.923L211.416 41.0167L209.584 40.9505V48.9854L211.403 49.1178V49.912H205.984V49.1178L207.648 48.9854V40.9505Z" fill="#727272"/>
<path d="M214.975 41.3476C214.663 41.3476 214.416 41.255 214.234 41.0697C214.052 40.8843 213.961 40.6461 213.961 40.3548C213.961 40.0195 214.065 39.7415 214.273 39.5209C214.481 39.3003 214.758 39.19 215.105 39.19C215.451 39.19 215.716 39.2871 215.898 39.4812C216.079 39.6665 216.17 39.9004 216.17 40.1828C216.17 40.5358 216.066 40.8181 215.859 41.0299C215.651 41.2417 215.36 41.3476 214.988 41.3476H214.975ZM214.286 43.8097L213.364 43.5582V42.6713L215.742 42.3801H215.768L216.131 42.6449V49.0119L217.002 49.1178V49.912H213.377V49.1178L214.286 48.9987V43.8097Z" fill="#727272"/>
<path d="M217.544 49.1178L218.271 48.9987V43.8097L217.44 43.5715V42.6581L219.597 42.3801L219.753 42.486L219.947 42.9228V43.4788C220.233 43.1964 220.64 42.9493 221.169 42.7375C221.706 42.5169 222.169 42.4066 222.559 42.4066C223.027 42.4066 223.404 42.486 223.69 42.6449C223.984 42.8037 224.205 43.0508 224.352 43.3861C224.638 43.1214 225.015 42.892 225.483 42.6978C225.951 42.5037 226.41 42.4066 226.86 42.4066C227.631 42.4066 228.177 42.636 228.497 43.0949C228.818 43.5538 228.978 44.3039 228.978 45.3452V48.9987L229.823 49.1178V49.912H226.457V49.1178L227.133 48.9987V45.3982C227.133 44.7098 227.051 44.2289 226.886 43.9553C226.73 43.6729 226.427 43.5317 225.977 43.5317C225.734 43.5317 225.483 43.5891 225.223 43.7038C224.972 43.8097 224.747 43.9421 224.547 44.1009C224.608 44.4363 224.638 44.8555 224.638 45.3585V48.9987L225.444 49.1178V49.912H222.052V49.1178L222.767 48.9987V45.3585C222.767 44.8996 222.737 44.5422 222.676 44.2863C222.624 44.0215 222.52 43.8318 222.364 43.7171C222.208 43.5935 221.983 43.5317 221.689 43.5317C221.411 43.5317 221.134 43.5979 220.857 43.7303C220.588 43.8538 220.346 44.0039 220.129 44.1804V48.9987L220.896 49.1178V49.912H217.544V49.1178Z" fill="#727272"/>
<path d="M233.587 50.0576C232.444 50.0576 231.59 49.7179 231.027 49.0384C230.473 48.35 230.196 47.4146 230.196 46.2321C230.196 45.4379 230.339 44.7496 230.624 44.1671C230.919 43.5847 231.33 43.139 231.859 42.8302C232.387 42.5213 232.998 42.3669 233.691 42.3669C234.557 42.3669 235.224 42.6007 235.692 43.0684C236.16 43.5273 236.402 44.1848 236.42 45.0408C236.42 45.6232 236.385 46.0556 236.316 46.338H232.093C232.127 47.1411 232.314 47.7676 232.651 48.2177C232.989 48.6589 233.47 48.8795 234.094 48.8795C234.432 48.8795 234.778 48.8222 235.133 48.7074C235.497 48.5927 235.783 48.4559 235.991 48.2971L236.316 49.0251C236.082 49.281 235.701 49.5193 235.172 49.7399C234.653 49.9517 234.124 50.0576 233.587 50.0576ZM234.601 45.5438C234.618 45.2967 234.627 45.107 234.627 44.9746C234.627 43.8009 234.241 43.2141 233.47 43.2141C233.046 43.2141 232.716 43.3861 232.483 43.7303C232.249 44.0745 232.119 44.679 232.093 45.5438H234.601Z" fill="#727272"/>
<path d="M238.509 48.8266C238.578 48.9325 238.734 49.034 238.977 49.131C239.228 49.2193 239.479 49.2634 239.731 49.2634C240.138 49.2634 240.441 49.1796 240.64 49.0119C240.848 48.8354 240.952 48.606 240.952 48.3236C240.952 48.0323 240.826 47.7985 240.575 47.622C240.324 47.4367 239.9 47.2116 239.302 46.9469L238.938 46.7881C238.34 46.5321 237.894 46.2233 237.6 45.8615C237.305 45.4997 237.158 45.0319 237.158 44.4583C237.158 44.0612 237.275 43.7082 237.509 43.3994C237.743 43.0817 238.072 42.8346 238.496 42.6581C238.921 42.4816 239.41 42.3934 239.965 42.3934C240.372 42.3934 240.718 42.4198 241.004 42.4728C241.299 42.5257 241.606 42.5963 241.927 42.6846C242.1 42.7463 242.23 42.7816 242.316 42.7905V44.5245H241.29L240.991 43.5185C240.939 43.4303 240.822 43.3508 240.64 43.2802C240.458 43.2096 240.25 43.1743 240.016 43.1743C239.661 43.1743 239.375 43.2538 239.159 43.4126C238.951 43.5626 238.847 43.7744 238.847 44.048C238.847 44.2951 238.921 44.5025 239.068 44.6701C239.215 44.829 239.375 44.9525 239.549 45.0408C239.722 45.129 240.042 45.2746 240.51 45.4776C240.978 45.6806 241.364 45.8747 241.667 46.06C241.979 46.2453 242.234 46.488 242.433 46.7881C242.641 47.0793 242.745 47.4367 242.745 47.8603C242.745 48.5133 242.494 49.0428 241.992 49.4487C241.489 49.8546 240.766 50.0576 239.822 50.0576C239.38 50.0576 238.981 50.0179 238.626 49.9385C238.28 49.8591 237.877 49.7532 237.418 49.6208L237.132 49.5281V47.7808H238.21L238.509 48.8266Z" fill="#727272"/>
</svg>
